<?xml version="1.0" standalone="no"?><!DOCTYPE svg PUBLIC "-//W3C//DTD SVG 1.1//EN" "http://www.w3.org/Graphics/SVG/1.1/DTD/svg11.dtd"><svg t="1755746981562" class="icon" viewBox="0 0 1024 1024" version="1.1" xmlns="http://www.w3.org/2000/svg" p-id="5030" xmlns:xlink="http://www.w3.org/1999/xlink" width="200" height="200"><path d="M469.333333 853.333333a42.666667 42.666667 0 0 1 42.666667-42.666666h136.533333c36.565333 0 61.397333 0 80.597334-1.621334 18.688-1.493333 28.288-4.266667 34.944-7.68a85.333333 85.333333 0 0 0 37.290666-37.290666c3.413333-6.656 6.186667-16.213333 7.68-34.944 1.578667-19.2 1.621333-44.032 1.621334-80.597334V375.466667c0-36.565333 0-61.397333-1.621334-80.597334-1.493333-18.688-4.266667-28.288-7.68-34.944a85.333333 85.333333 0 0 0-37.290666-37.290666c-6.656-3.413333-16.213333-6.186667-34.944-7.68C709.930667 213.333333 685.098667 213.333333 648.533333 213.333333H512a42.666667 42.666667 0 1 1 0-85.333333h138.282667c34.346667 0 62.72 0 85.76 1.877333 24.021333 1.962667 46.08 6.186667 66.773333 16.725334a170.666667 170.666667 0 0 1 74.581333 74.581333c10.538667 20.693333 14.762667 42.752 16.725334 66.730667C896 311.04 896 339.370667 896 373.674667v276.608c0 34.346667 0 62.72-1.877333 85.76-1.962667 24.021333-6.186667 46.08-16.725334 66.773333a170.666667 170.666667 0 0 1-74.581333 74.581333c-20.693333 10.538667-42.752 14.762667-66.730667 16.725334-23.082667 1.877333-51.456 1.877333-85.76 1.877333H512a42.666667 42.666667 0 0 1-42.666667-42.666667z" fill="#2A343D" p-id="5031"></path><path d="M170.666667 554.666667a42.666667 42.666667 0 1 1 0-85.333334h366.336l-55.168-55.168a42.666667 42.666667 0 0 1 60.330666-60.330666l128 128a42.666667 42.666667 0 0 1 0 60.330666l-128 128a42.666667 42.666667 0 0 1-60.330666-60.330666L537.002667 554.666667H170.666667z" fill="#2A343D" p-id="5032"></path></svg>